<svg xmlns="http://www.w3.org/2000/svg" xmlns:xlink="http://www.w3.org/1999/xlink" viewBox="0,0,256,256" width="100px" height="100px" fill-rule="nonzero"><g fill="none" fill-rule="nonzero" stroke="none" stroke-width="none" stroke-linecap="none" stroke-linejoin="none" stroke-miterlimit="10" stroke-dasharray="" stroke-dashoffset="0" font-family="none" font-weight="none" font-size="none" text-anchor="none" style="mix-blend-mode: normal"><g transform="scale(2.56,2.56)"><path d="M19.5,95c-3.584,0 -6.5,-2.916 -6.5,-6.5v-37.678c-0.493,0.117 -1.497,-3.822 -2,-3.822c-1.209,0 -1.973,0.635 -3,0c-1.929,-1.192 -3,-0.231 -3,-2.5v-8c0,-2.332 1.259,-4.497 3.287,-5.65l40.5,-23.038c0.978,-0.556 2.089,-0.85 3.214,-0.85c1.125,0 2.236,0.294 3.214,0.851l40.5,23.038c2.026,1.152 3.285,3.317 3.285,5.649v8c0,2.269 -1.152,4.336 -3.083,5.529c-1.026,0.635 -2.208,0.971 -3.416,0.971c-0.504,0 -1.009,-0.06 -1.501,-0.177v37.677c0,3.584 -2.916,6.5 -6.5,6.5z" fill="#ffffff" stroke="none" stroke-width="1" stroke-linecap="butt" stroke-linejoin="miter" opacity="0.35"></path><path d="M17.5,93c-3.584,0 -6.5,-2.916 -6.5,-6.5v-37.678c-0.493,0.117 -0.997,0.178 -1.5,0.178c-1.209,0 -2.391,-0.336 -3.418,-0.971c-1.93,-1.193 -3.082,-3.26 -3.082,-5.529v-8c0,-2.332 1.259,-4.497 3.287,-5.65l40.5,-23.038c0.978,-0.556 2.089,-0.85 3.214,-0.85c1.125,0 2.236,0.294 3.214,0.851l40.5,23.038c2.026,1.152 3.285,3.317 3.285,5.649v8c0,2.269 -1.152,4.336 -3.083,5.529c-1.026,0.635 -2.208,0.971 -3.416,0.971c-0.504,0 -1.009,-0.06 -1.501,-0.177v37.677c0,3.584 -2.916,6.5 -6.5,6.5z" fill="#ffffff" stroke="none" stroke-width="1" stroke-linecap="butt" stroke-linejoin="miter"></path><path d="M90.5,34.5l-40.5,-23.038l-40.5,23.038v8l8,-4v48h65v-48l8,4z" fill="#95ccf9" stroke="none" stroke-width="1" stroke-linecap="butt" stroke-linejoin="miter"></path><path d="M9.5,34.5l0.5,6.481l7.006,-3.894l32.994,-18.106l32.985,18.097l7.015,3.903l0.5,-6.481l-40.5,-23.038z" fill="#ff7b7b" stroke="none" stroke-width="1" stroke-linecap="butt" stroke-linejoin="miter"></path><path d="M90.5,34.5l-40.5,-23.038l-40.5,23.038v8l8,-4v48h65v-48l8,4z" fill="none" stroke="#40396e" stroke-width="3" stroke-linecap="round" stroke-linejoin="round"></path><path d="M16,41l1.044,-3.931l32.956,-18.069l32.985,18.078l1.015,3.922l-34,-18.494z" fill="#40396e" stroke="none" stroke-width="1" stroke-linecap="butt" stroke-linejoin="miter" opacity="0.35"></path><rect x="19" y="75" width="62" height="10" fill="#3e64d3" stroke="none" stroke-width="1" stroke-linecap="butt" stroke-linejoin="miter" opacity="0.35"></rect><rect x="37" y="50" width="26" height="35" fill="#ff7b7b" stroke="none" stroke-width="1" stroke-linecap="butt" stroke-linejoin="miter"></rect><circle cx="56.5" cy="68.5" r="2.5" fill="#40396e" stroke="none" stroke-width="1" stroke-linecap="butt" stroke-linejoin="miter"></circle></g></g></svg>